<!--
  Generated by docs/brand/web_favicon.py. Do not edit by hand.

  The Nightbell mark: the heartbeat trace knocked out of a bell, brand blue on a
  transparent ground so it reads in a light tab and a dark one. The trace is the
  same six points the Pulse mark drew, so the old identity survives inside the
  new one.

  Geometry lives in docs/brand/android_assets.py. Change it there, then run this
  and android_assets.py both.
-->
<svg xmlns="http://www.w3.org/2000/svg" viewBox="0 0 512 512" width="512" height="512" role="img" aria-label="Nightbell">
  <defs>
    <mask id="nb-cut" maskUnits="userSpaceOnUse" x="0" y="0" width="512" height="512">
      <path d="M256.00,69.28C157.99,69.28 97.16,174.05 90.40,322.75L49.85,370.06L49.85,403.85L462.15,403.85L462.15,370.06L421.60,322.75C414.84,174.05 354.01,69.28 256.00,69.28Z" fill="#fff"/>
      <path d="M223.89,32.11A32.11,32.11 0 1,0 288.11,32.11A32.11,32.11 0 1,0 223.89,32.11Z" fill="#fff"/>
      <path d="M215.45,471.45A40.55,40.55 0 1,0 296.55,471.45A40.55,40.55 0 1,0 215.45,471.45Z" fill="#fff"/>
      <path d="M128.25,257.12L193.55,257.12L216.26,197.50L253.16,319.57L275.87,257.12L383.75,257.12" fill="none" stroke="#000" stroke-width="31.94" stroke-linecap="round" stroke-linejoin="round"/>
    </mask>
  </defs>
  <rect width="512" height="512" fill="#2F6BFF" mask="url(#nb-cut)"/>
</svg>
